<svg xmlns="http://www.w3.org/2000/svg" viewBox="0 0 365.4404 400" width="100%" height="100%"><g><g><svg viewBox="0 0 128 128" width="110.480133056641" height="125.29613494873" fill="currentColor" x="10" y="10"><path fill="#1572B6" d="M18.814 114.123l-10.054-112.771h110.48l-10.064 112.754-45.243 12.543-45.119-12.526z"/><path fill="#33A9DC" d="M64.001 117.062l36.559-10.136 8.601-96.354h-45.16v106.49z"/><path fill="#fff" d="M64.001 51.429h18.302l1.264-14.163h-19.566v-13.831h34.681999999999995l-.332 3.711-3.4 38.114h-30.95v-13.831z"/><path fill="#EBEBEB" d="M64.083 87.349l-.061.018-15.403-4.159-.985-11.031h-13.882l1.937 21.717 28.331 7.863.063-.018v-14.39z"/><path fill="#fff" d="M81.127 64.675l-1.666 18.522-15.426 4.164v14.39l28.354-7.858.208-2.337 2.406-26.881h-13.876z"/><path fill="#EBEBEB" d="M64.048 23.435v13.831000000000001h-33.407999999999994l-.277-3.108-.63-7.012-.331-3.711h34.646zM64.001 51.431v13.831000000000001h-15.209l-.277-3.108-.631-7.012-.33-3.711h16.447z"/></svg></g><g><svg id="Express" viewBox="0 0 128 128" width="110.480133056641" height="125.29613494873" fill="currentColor" x="125.480133056641" y="10"><title>Artboard 16</title><g id="original"><path d="M126.67,98.44c-4.56,1.16-7.38.05-9.91-3.75-5.68-8.51-11.95-16.63-18-24.9-.78-1.07-1.59-2.12-2.6-3.45C89,76,81.85,85.2,75.14,94.77c-2.4,3.42-4.92,4.91-9.4,3.7L92.66,62.34,67.6,29.71c4.31-.84,7.29-.41,9.93,3.45,5.83,8.52,12.26,16.63,18.67,25.21C102.65,49.82,109,41.7,115,33.26c2.41-3.42,5-4.72,9.33-3.46-3.28,4.35-6.49,8.63-9.72,12.88-4.36,5.73-8.64,11.53-13.16,17.14-1.61,2-1.35,3.3.09,5.19C109.9,76,118.16,87.1,126.67,98.44Z"/><path d="M1.33,61.74c.72-3.61,1.2-7.29,2.2-10.83,6-21.43,30.6-30.34,47.5-17.06C60.93,41.64,63.39,52.62,62.9,65H7.1c-.84,22.21,15.15,35.62,35.53,28.78,7.15-2.4,11.36-8,13.47-15,1.07-3.51,2.84-4.06,6.14-3.06-1.69,8.76-5.52,16.08-13.52,20.66-12,6.86-29.13,4.64-38.14-4.89C5.26,85.89,3,78.92,2,71.39c-.15-1.2-.46-2.38-.7-3.57Q1.33,64.78,1.33,61.74ZM7.2,60.25H57.63c-.33-16.06-10.33-27.47-24-27.57C18.63,32.56,7.85,43.7,7.2,60.25Z"/></g></svg></g><g><svg viewBox="0 0 128 128" width="110.480133056641" height="125.29613494873" fill="currentColor" x="240.960266113281" y="10"><path fill="#E44D26" d="M19.037 113.876l-10.005-112.215h109.936l-10.016 112.198-45.019 12.48z"/><path fill="#F16529" d="M64 116.8l36.378-10.086 8.559-95.878h-44.937z"/><path fill="#EBEBEB" d="M64 52.455h-18.212l-1.258-14.094h19.47v-13.762h-34.511l.33 3.692 3.382 37.927h30.799zM64 88.198l-.061.017-15.327-4.14-.979-10.975h-13.817l1.928 21.609 28.193 7.826.063-.017z"/><path fill="#fff" d="M63.952 52.455v13.763h16.947l-1.597 17.849-15.35 4.143v14.319l28.215-7.82.207-2.325 3.234-36.233.335-3.696h-3.708zM63.952 24.599v13.762h33.244l.276-3.092.628-6.978.329-3.692z"/></svg></g></g></svg>